<?xml version="1.0" encoding="utf-8"?>
<!-- Generator: Adobe Illustrator 24.1.0, SVG Export Plug-In . SVG Version: 6.00 Build 0)  -->
<svg version="1.1" id="Layer_1" xmlns="http://www.w3.org/2000/svg" xmlns:xlink="http://www.w3.org/1999/xlink" x="0px" y="0px"
	 viewBox="0 0 800 800" style="enable-background:new 0 0 800 800;" xml:space="preserve">
<style type="text/css">
	.st0{fill-rule:evenodd;clip-rule:evenodd;fill:#2A2941;}
	.st1{fill-rule:evenodd;clip-rule:evenodd;fill:#FFFFFF;}
	.st2{fill-rule:evenodd;clip-rule:evenodd;fill:#4840FF;}
	.st3{fill-rule:evenodd;clip-rule:evenodd;fill:#A694FE;}
	.st4{fill-rule:evenodd;clip-rule:evenodd;fill:#FEC34E;}
</style>
<path class="st0" d="M423.4,252.9L163.1,364.5l97.5,235.1L515.3,488L423.4,252.9z"/>
<path class="st1" d="M446,207.2L185.7,318.8l97.5,235.1l254.6-111.6L446,207.2z"/>
<path class="st0" d="M550.1,447l-99.4-252L173.8,313.8l104.4,252L550.1,447z M440.7,218.5l86.2,218.8L288.3,541.7l-90.6-217.9
	L440.7,218.5z"/>
<path class="st0" d="M205.8,384.8L478,267.6l-7.2-16.6L198.9,368.2L205.8,384.8z"/>
<path class="st0" d="M219,350.7l19.4-8.1l-6.9-16.9l-19.4,8.4L219,350.7z"/>
<path class="st0" d="M252.8,336.7l19.4-7.5l-7.2-16.6l-19.4,8.4l6.9,16.6L252.8,336.7z"/>
<path class="st0" d="M286.4,322.9l19.4-8.1l-7.2-16.6l-19.4,8.1L286.4,322.9z"/>
<path class="st2" d="M362.7,465.9l110.1-46c33.6-19.7,30.7-52.5,12.9-65.6c-18.2-13.1-57.7-6.6-60.5,34.1
	c-42.6-62.2-107.3-34.1-120.7,5C293.7,424.4,310.6,472.8,362.7,465.9z"/>
<path class="st2" d="M396.9,384.4c-27.9-13.7-77.3,5.4-67.1,61.2c-23-20.2-47.6-2.8-50.4,13.8c-2.6,16.5,13.3,35.5,41.6,28.3
	l83.1-33.7C435.6,430.1,419,395.3,396.9,384.4z"/>
<g>
	<path class="st0" d="M487.7,555.7l-65.3-47.1l10.5-16.4l-13.9-10.2c28.3-21.2,83.7-61.3,101.9-49c18.2,12.3,13.6,82.8,6.7,122.4
		l-30.1-15.1L487.7,555.7z"/>
	<path class="st0" d="M412.3,550.2c6.3-18.3,15.6-35.7,27.7-51l4.5-5.8l-11.9-9l-4.4,6c-13,16.8-23.1,35.3-29.8,55.3l-2.2,7.1
		l14,4.7L412.3,550.2z"/>
	<path class="st0" d="M431.9,558c6.7-15.8,15.9-30.5,26.7-43.5l4.5-5.8l-11.7-9.2l-4.5,5.8c-11.9,14.2-21.7,30.3-28.9,47.3l-2.7,6.8
		l13.7,5.6L431.9,558z"/>
	<path class="st0" d="M450.9,567.5c7.5-13.6,16.6-26.5,27.1-38.1l4.9-5.7l-11.4-9.7l-4.9,5.7c-11.4,12.5-21.2,26.3-29.1,41.1
		l-3.4,6.6l13.4,6.6L450.9,567.5z"/>
	<path class="st1" d="M485.1,531.2l-65.3-47.1l10.4-16.6L406.1,449c28.3-21.2,92.8-54.4,112.6-41c19.8,13.4,12.3,83.6,5.1,123.1
		l-28.4-15.8l-10.3,15.4L485.1,531.2z"/>
	<path class="st0" d="M410.1,486.3l77.2,55.6l10.6-16.2l31.8,17.9l1.7-10.3c6.5-33,8.7-66.7,6-100.4c-0.6-11.6-5.7-22.2-14.2-30.1
		c-5.1-2.5-10.7-4.1-16.4-4.7c-5.6-0.4-11.5,0.3-17,2.2c-31.4,9.3-61.1,23.9-87.7,43.4l-7.9,6.1L421,470l-10.6,16.8L410.1,486.3z
		 M483.4,520.7l-53.1-38.2l10.5-16.4l-21.6-16.5c22.7-15.6,47.6-27.2,74-34.9c4.7-1.1,9.3-1.9,14.1-1.9c2.6-0.1,5.2,0.7,7.5,1.9
		c3.1,2.6,5.4,6.2,6.3,10.1c2,7.1,2.9,14.3,3.2,21.6c0.7,24.4-0.9,48.7-4.9,72.8l-25.8-13.6L483.4,520.7z"/>
	<path class="st3" d="M466.9,460.9c3.9-2.4,8.5-3.2,12.7-2.2c4.2,1,8,3.7,10.4,7.6c2.4,3.9,3.2,8.5,2.2,12.7c-1,4.2-3.7,8-7.6,10.4
		s-8.5,3.2-12.7,2.2c-4.2-1-8-3.7-10.4-7.6c-2.4-3.9-3.2-8.5-2.2-12.7C460.5,467,463.3,463.2,466.9,460.9z"/>
	<path class="st0" d="M463,454.6c-4.1,2.6-7.6,6.2-9.3,10.6c-2.1,4.3-2.7,9.2-2,14.1c0.9,4.8,3,9.2,6.1,12.7c3.4,3.6,7.6,6,12.2,7.1
		c4.6,1.1,9.8,0.8,14.1-1c4.7-1.7,8.5-4.7,11.5-8.6c3-3.9,4.5-8.8,4.6-13.3c0.2-4.9-1.1-9.5-3.6-13.6c-3.4-5.4-8.7-9.2-15-10.7
		C475,450.2,468.5,451.2,463,454.6z M470.8,467.1c1.1-0.7,2.3-1.1,3.4-1.2c1.1-0.1,2.4,0,3.7,0.1c1.1,0.2,2.2,0.7,3.3,1.5
		c1,0.6,1.9,1.5,2.3,2.8c0.9,1.5,1.4,3.3,1.4,5.1c-0.1,1.8-0.8,3.5-1.7,5c-1.1,1.6-2.6,2.5-4.3,3.3c-1.7,0.7-3.5,0.7-5.2,0.3
		c-1.8-0.4-3.2-1.3-4.6-2.5c-1.2-1.4-2.1-2.9-2.4-4.8c-0.3-1.9-0.1-3.5,0.7-5.2S469.3,468.1,470.8,467.1z"/>
	<path class="st0" d="M464.4,424.4c22.5,2.5,49.1,23.9,60.7,41.6c1.1,1.7,2.7,2.8,4.8,3.3c1.8,0.4,4,0.2,5.8-0.9s2.8-2.7,3.3-4.8
		c0.4-1.8,0.2-4-0.9-5.7c-13.1-21.2-45.1-45.6-71.5-48.3c-0.9,0-2.1,0.1-2.8,0.3c-1,0.3-1.9,0.9-2.7,1.4c-0.9,0.5-1.5,1.5-1.8,2.3
		c-0.4,0.8-0.6,1.9-0.9,2.9c-0.1,1.8,0.6,3.8,1.7,5.2C460.8,423.4,462.6,424.4,464.4,424.4z"/>
</g>
<g>
	<path class="st0" d="M411.4,218c-5.1,1-9.7,2.9-14.1,5.7l1.9,9.9c-3.8,2.9-6.9,6.3-9.3,10.3l-10.3-1c-2.3,4.6-3.8,9.4-4.4,14.5
		l8.8,4.6c-0.2,4.6,0.6,9.2,2.1,13.4l-6.9,7.1c2.3,4.6,5.3,8.8,8.6,12.4l9.3-4.2c3.6,2.9,7.6,5.2,12,6.7l1.1,10.3
		c5.1,1.3,10.1,1.7,15.2,1l2.5-9.6c4.6-0.8,8.8-2.5,12.6-5l8.6,5.2c4-3.1,7.6-6.7,10.3-11.1l-6.1-8c2.1-4,3.6-8.6,4-13l9.5-3.4
		c0-5-0.6-10.1-2.3-14.9h-10.3c-1.9-4.2-4.6-8-7.8-11.3l3.2-9.4c-4-3.1-8.4-5.7-13.3-7.6l-6.3,7.6c-4.4-1.3-9-1.5-13.7-0.8l-5.5-8.4
		L411.4,218z M411.4,238.8c6.5-2.5,13.7-2.5,20,0.2c6.3,2.7,11.4,7.8,14.1,14.3c1.3,3.1,1.9,6.5,1.9,10.1c0,3.4-0.8,6.7-2.1,9.9
		c-1.3,3.1-3.4,6.1-5.7,8.4c-2.5,2.3-5.3,4.2-8.4,5.5c-6.5,2.5-13.7,2.5-20-0.2c-6.3-2.7-11.4-7.8-14.1-14.3
		c-1.3-3.1-1.9-6.5-1.9-10.1c0-3.4,0.8-6.9,2.1-10.1c1.3-3.1,3.4-6.1,5.9-8.4C405.3,241.7,408.2,239.8,411.4,238.8z"/>
	<path class="st4" d="M421.7,204c-5.1,1-9.9,2.9-14.1,5.7l1.9,9.9c-3.8,2.7-6.9,6.3-9.3,10.3l-10.3-1c-2.1,4.6-3.6,9.4-4.2,14.5
		l8.8,4.6c-0.2,4.6,0.6,9.2,2.1,13.4l-6.9,6.9c2.1,4.6,5.1,8.8,8.6,12.4l9-4c3.6,2.9,7.6,5.2,12,6.7l1.3,10.3
		c4.8,1.3,10.1,1.5,15.2,1l2.5-9.6c4.6-0.8,8.8-2.5,12.8-5l8.4,5.2c4-3.1,7.6-6.9,10.3-11.1l-5.9-8c2.1-4.2,3.4-8.6,4-13l9.5-3.4
		c0-5-0.8-10.1-2.3-14.9h-10.3c-1.9-4.2-4.6-8-7.8-11.3l3.2-9.4c-4-3.1-8.4-5.7-13.3-7.6l-6.3,7.6c-4.4-1.3-9-1.5-13.7-1l-5.5-8.4
		L421.7,204z M421.7,224.7c6.5-2.5,13.7-2.5,20,0.4c6.3,2.7,11.4,8,13.9,14.3c1.3,3.1,1.9,6.5,1.9,10.1c0,3.4-0.6,6.7-2.1,9.9
		c-1.3,3.1-3.4,6.1-5.7,8.4c-2.5,2.3-5.3,4.2-8.6,5.5c-6.5,2.5-13.7,2.5-20-0.4c-6.3-2.7-11.4-8-13.9-14.3
		c-1.3-3.1-1.9-6.5-1.9-10.1c0-3.4,0.6-6.9,2.1-10.1c1.3-3.1,3.4-6.1,5.9-8.4C415.8,227.7,418.7,225.8,421.7,224.7z"/>
	<path class="st0" d="M429.9,198.7l-3.6-5.7l-6.5,1.3c-5.9,1.5-11.4,3.8-16.6,6.7l-5.9,3.6l2.1,10.9c-1.1,1-2.1,2.3-3.2,3.6l-11.2-1
		l-2.9,5.9c-2.7,5.5-4.6,11.3-5.3,17.6l-0.8,6.7l10.3,5.2c0.2,1.7,0.4,3.1,0.6,4.8l-7.8,7.8l2.9,6.1c2.5,5.7,6.1,10.7,10.3,15.1
		l4.6,4.8l10.3-4.6c1.3,0.8,2.7,1.7,4.2,2.5l1.3,10.9l6.5,1.7c5.9,1.5,12.2,1.9,18.3,1.3l6.7-0.6l2.7-10.3l4.6-1.7l9.5,5.9l5.5-4.2
		c4.8-3.8,9-8.4,12.4-13.4l3.6-5.7L476,265c0.6-1.5,1.1-2.9,1.3-4.6l10.3-3.8v-6.7c0-6.1-0.8-12.2-2.9-18l-2.1-6.3h-11.2l-2.7-4
		l3.6-10.3l-5.3-4.2c-4.8-3.8-10.3-6.9-16-9l-6.3-2.3l-7.2,8.4h-5.1l-2.3-3.8L429.9,198.7z M421.7,204c-5.1,1-9.9,2.9-14.1,5.7
		l1.9,9.9c-3.8,2.7-6.9,6.3-9.3,10.3l-10.3-1c-2.1,4.6-3.6,9.4-4.2,14.5l8.8,4.6c-0.2,4.6,0.6,9.2,2.1,13.4l-6.9,6.9
		c2.1,4.6,5.1,8.8,8.6,12.4l9-4c3.6,2.9,7.6,5.2,12,6.7l1.3,10.3c4.8,1.3,10.1,1.5,15.2,1l2.5-9.6c4.6-0.8,8.8-2.5,12.8-5l8.4,5.2
		c4-3.1,7.6-6.9,10.3-11.1l-5.9-8c2.1-4.2,3.4-8.6,4-13l9.5-3.4c0-5-0.8-10.1-2.3-14.9h-10.3c-1.9-4.2-4.6-8-7.8-11.3l3.2-9.4
		c-4-3.1-8.4-5.7-13.3-7.6l-6.3,7.6c-4.4-1.3-9-1.5-13.7-1l-5.5-8.4L421.7,204z M421.7,224.5c6.5-2.5,13.7-2.5,20,0.4
		c6.3,2.7,11.4,8,13.9,14.3c1.3,3.1,1.9,6.5,1.9,10.1c0,3.4-0.6,6.7-2.1,9.9c-1.3,3.1-3.4,6.1-5.7,8.4c-2.5,2.3-5.3,4.2-8.6,5.5
		c-6.5,2.5-13.7,2.5-20-0.4c-6.3-2.7-11.4-8-13.9-14.3c-1.3-3.1-1.9-6.5-1.9-10.1c0-3.4,0.6-6.9,2.1-10.1c1.3-3.1,3.4-6.1,5.9-8.4
		C415.8,227.5,418.7,225.6,421.7,224.5z M425.3,233.5c4-1.7,8.6-1.5,12.6,0.2c4,1.7,7.2,5,8.8,9c0.8,1.9,1.3,4.2,1.3,6.3
		c0,2.1-0.4,4.2-1.3,6.3c-0.8,1.9-2.1,3.8-3.6,5.2c-1.5,1.5-3.4,2.7-5.5,3.4c-4,1.7-8.6,1.5-12.6-0.2c-4-1.7-7.2-5-8.8-9
		c-0.8-1.9-1.3-4.2-1.3-6.3c0-2.1,0.4-4.2,1.3-6.3c0.8-1.9,2.1-3.8,3.6-5.2C421.5,235.6,423.4,234.4,425.3,233.5z"/>
</g>
</svg>
